<?xml version="1.0" standalone="no"?>
<!DOCTYPE svg PUBLIC "-//W3C//DTD SVG 1.1//EN" "http://www.w3.org/Graphics/SVG/1.1/DTD/svg11.dtd">
<svg xmlns="http://www.w3.org/2000/svg" width="132" height="131" viewBox="0 0 132 131" fill="none">
<path d="M65.9284 130.67C58.9584 130.67 51.9784 128.02 46.6684 122.71L8.55838 84.6C-2.06162 73.98 -2.06162 56.71 8.55838 46.09L46.6684 7.98001C51.8084 2.84001 58.6484 0 65.9284 0C73.2084 0 80.0384 2.83001 85.1884 7.98001L123.298 46.09C128.438 51.23 131.278 58.07 131.278 65.35C131.278 72.63 128.448 79.46 123.298 84.61L85.1884 122.72C79.8784 128.03 72.9084 130.68 65.9284 130.68V130.67ZM57.9384 111.43C62.3384 115.83 69.5084 115.83 73.9084 111.43L112.018 73.32C114.148 71.19 115.328 68.35 115.328 65.33C115.328 62.31 114.158 59.48 112.018 57.34L73.9084 19.23C71.7784 17.1 68.9384 15.92 65.9184 15.92C62.8984 15.92 60.0684 17.09 57.9284 19.23L19.8184 57.34C15.4184 61.74 15.4184 68.91 19.8184 73.31L57.9284 111.42L57.9384 111.43Z" fill="#EFE9D3"/>
<path d="M65.9284 95.96C63.7384 95.96 61.6884 95.11 60.1384 93.56L37.6984 71.12C34.5184 67.94 34.5084 62.76 37.6684 59.57L60.1384 37.1C63.3284 33.91 68.5185 33.91 71.7085 37.1L94.1484 59.54C97.3384 62.76 97.3284 67.94 94.1484 71.11L71.7085 93.55C70.1585 95.1 68.1084 95.95 65.9184 95.95L65.9284 95.96ZM54.4585 65.34L65.9284 76.81L77.3984 65.34L65.9284 53.87L54.4585 65.34Z" fill="#EFE9D3"/>
</svg>